# xmcd
#
# Track frame offsets:
#	150
#	12491
#	25476
#	36610
#	48452
#	58074
#	68480
#	80073
#	88470
#	96985
#	107606
#	119362
#	134139
#	143317
#	152484
#	162708
#	173839
#	185091
#	195249
#	208195
#	222032
#	231848
#	239971
#	252817
#
# Disc length: 3580 seconds
#
# Revision: 0
# Processed by: cddbd v1.5.2PL0 Copyright (c) Steve Scherf et al.
# Submitted via: audiograbber 1.83.01
#
DISCID=6b0dfa18
DTITLE=Various Artist - Lets Party Volume 4
DYEAR=1900
DGENRE=
TTITLE0=Clifton Chenier - My Soul
TTITLE1=Clifton Chenier - Bayou Driver
TTITLE2=Bo Diddley - Let The Kids Dance
TTITLE3=Earl Gilliam - Dont Make Me Late Baby
TTITLE4=Frankie Tucker - Good Googely Woo
TTITLE5=F C Hill - So Long Goodbye
TTITLE6=Chris Kenner - Grandma's House
TTITLE7=Jiven Gene - My Need For Love
TTITLE8=Ivory Joe Hunter - Welcome Home Baby
TTITLE9=Piltdown Men - Bubbles In The Tar
TTITLE10=Frankie Tucker - Hey Hester
TTITLE11=Chicago Slim Blues Band - Devil With The Red Dress
TTITLE12=Lil Son Jackson - Get High Everybody
TTITLE13=Bay Boys - Follow The Rock
TTITLE14=Detroit Junior - Too Poor
TTITLE15=Jack McVea - Cha Cha Hop
TTITLE16=Virtues - Virtues Boogie Woogie
TTITLE17=Chuck Brown - Hard Times At My Door
TTITLE18=Good Jelly Bess - You'll Have To Come And Get It
TTITLE19=Joe Morris - Travelin Man
TTITLE20=Danny Bell - Chili With Honey
TTITLE21=Charles Sheffield - Its Your Voodoo Working
TTITLE22=Charles Sheffield - Kangaroo
TTITLE23=Hansel Martinzel - Love Potion #9
EXTD=
EXTT0=
EXTT1=
EXTT2=
EXTT3=
EXTT4=
EXTT5=
EXTT6=
EXTT7=
EXTT8=
EXTT9=
EXTT10=
EXTT11=
EXTT12=
EXTT13=
EXTT14=
EXTT15=
EXTT16=
EXTT17=
EXTT18=
EXTT19=
EXTT20=
EXTT21=
EXTT22=
EXTT23=
PLAYORDER=
